<?xml version="1.0" encoding="utf-8"?>
<svg version="1.1" id="Ebene_1" xmlns="http://www.w3.org/2000/svg" xmlns:xlink="http://www.w3.org/1999/xlink" x="0px" y="0px"
	  viewBox="0 0 650 650" style="enable-background:new 0 0 650 650;" xml:space="preserve">
<style type="text/css">
	.st0{fill:#DE6C26;}
</style>
<g>
	<path class="st0" d="M325.3,342.3c0-13-0.1-26,0.1-39c0.1-2.6,1-5.5,2.5-7.7c7-10.3,14.5-20.4,21.4-30.7c1.5-2.3,2.4-5.5,2.3-8.5
		c-3,0.5-5.8,1.9-8.2,3.6c-3.3,2.4-6.1,5.6-9.2,8.4c-2.8,2.5-5.6,4.9-8.4,7.4c-0.2-3.8-0.4-7.5-0.5-11.3c-0.1-7,0.5-14-0.1-21
		c-0.9-10.4-2.2-18.4-3.8-28.8c-0.2-1.6-1.2-4.8-3-6.8c-2.2,2.4-2.9,4.6-3.4,6.7c-1.4,8.5-2.6,15-3.1,23.6
		c-1.1,19.8-1.7,39.6-2.3,59.4c-0.8,29.5-1.4,58.9-2,88.4c-0.6,27.6-1.4,55.2-1.9,82.9c-0.1,4.5-1.3,5-5,3.5
		c-21.2-8.4-37.9-22.6-52.6-39.6c-19.1-22.1-31.5-47.4-34.5-76.6c-2.3-22.1,0.8-43.8,7.5-65c11-34.9,28.2-66.1,54.7-91.6
		c6.7-6.5,14.7-11.9,22.7-17c8.9-5.6,18.7-6,28.8-2.6c19.3,6.4,35.6,17.8,50.8,31c20.6,17.9,37.5,38.8,49.1,63.6
		c15.1,32.1,16.4,64.8,3.5,97.7c-16.5,42.2-45,73.8-85.8,94c-4.7,2.3-10,3.7-14.9,5.6c-3.2,1.2-4.3,0-4-3.1c0-0.2,0-0.3,0-0.5
		c-0.2-17-0.5-34-0.5-50.9c0-2.4,1.1-5.2,2.6-7.1c13-16.3,26.4-32.2,39.2-48.6c4.5-5.8,7.8-12.7,11.1-19.4c1.1-2.1,1.6-4.7,0.9-7.3
		c-3.3-0.1-5.1,1.6-6.9,3.2c-7.7,7.1-15.3,14.4-22.6,21.9c-6.9,7.2-13.4,14.8-20.1,22.2c-1.2,1.3-2.6,2.3-4,3.4
		c-0.1-1.6-0.4-3.2-0.4-4.8C325.4,367.9,325.4,355.1,325.3,342.3C325.4,342.3,325.3,342.3,325.3,342.3z"/>
</g>
</svg>
